# xmcd
#
# Track frame offsets: 
#        150
#        19801
#        39382
#        62933
#        78745
#        99703
#        121665
#        141651
#        165557
#        183284
#        201565
#        221395
#        240583
#        258349
#        276215
#        301144
#        319130
#        341237
#
# Disc length: 4798 seconds
#
# Revision: 0
# Processed by: cddbd v1.5.2PL0 Copyright (c) Steve Scherf et al.
# Submitted via: ExactAudioCopy v1.0b3
#
DISCID=0e12bc12
DTITLE=DJ PMX - The Chronicle - Best Works
DYEAR=2009
DGENRE=Hip Hop
TTITLE0=Miss Luxury [P.V. Version] feat. Maccho [Ozrosaurus], Gipper, 
TTITLE0=Koz, Hi-D, Foxxi misQ
TTITLE1=Hey Girl feat. Corn Head - Ozrosaurus
TTITLE2=Stay With Me feat. Jamosa - Big Ron
TTITLE3=Nobody Does It Better feat. DS455 - AK-69 a.k.a. Kalassy Nikof
TTITLE3=f
TTITLE4=Just Another Day feat. 青山テルマ, Kayzabro
TTITLE5=Area Area - Ozrosaurus
TTITLE6=Now We Just Chillin' feat. DS455, Big Ron, Sayaka - Corn Head
TTITLE7=Ghetto Luv feat. Fingazz, Mr.Oz [Phobia Of Thug] - Big Ron
TTITLE8=Yoko Yoko Cruisin' feat. Kayzabro, Maccho [Ozrosaurus] - Ghett
TTITLE8=o Inc.
TTITLE9=Dreams Come True feat. Kayzabro - II-J
TTITLE10=Baby Baby Baby - Hokt
TTITLE11=This Is 4 The Locos feat. DS455, Big Ron - Zeebra
TTITLE12=Let's Go [It's A Movement] Remix feat. DS455, Warren G - LiL'
TTITLE12=AI
TTITLE13=Funky New Styler - 真衣良
TTITLE14=Still Runnin' Game [Runnin' Game Remix] - Foesum
TTITLE15=本物はグッと来るらしい feat. Q 
TTITLE16=Miss Luxury [P.V. Version - DJ PMX Remix] feat. Maccho, Gippe
TTITLE16=r, Koz, Hi-D, Foxxi misQ [Brand New Remix ~2009~] 
TTITLE17=Violator - Mazz
EXTD=
EXTT0=
EXTT1=
EXTT2=
EXTT3=
EXTT4=
EXTT5=
EXTT6=
EXTT7=
EXTT8=
EXTT9=
EXTT10=
EXTT11=
EXTT12=
EXTT13=
EXTT14=
EXTT15=
EXTT16=
EXTT17=
PLAYORDER=
